<?xml version="1.0" encoding="UTF-8" standalone="no"?>
<svg
   height="355.1709"
   width="359.87473"
   version="1.1"
   viewBox="0 0 359.87472 355.1709"
   id="svg1"
   sodipodi:docname="melodimancer-logo.svg"
   xml:space="preserve"
   inkscape:version="1.3.2 (091e20e, 2023-11-25)"
   xmlns:inkscape="http://www.inkscape.org/namespaces/inkscape"
   xmlns:sodipodi="http://sodipodi.sourceforge.net/DTD/sodipodi-0.dtd"
   xmlns="http://www.w3.org/2000/svg"
   xmlns:svg="http://www.w3.org/2000/svg"><defs
     id="defs1" /><sodipodi:namedview
     id="namedview1"
     pagecolor="#000000"
     bordercolor="#000000"
     borderopacity="0.25"
     inkscape:showpageshadow="2"
     inkscape:pageopacity="0.0"
     inkscape:pagecheckerboard="false"
     inkscape:deskcolor="#d1d1d1"
     inkscape:zoom="1.2572353"
     inkscape:cx="175.78253"
     inkscape:cy="216.34773"
     inkscape:window-width="1392"
     inkscape:window-height="1027"
     inkscape:window-x="528"
     inkscape:window-y="1118"
     inkscape:window-maximized="0"
     inkscape:current-layer="svg1" /><path
     fill="#1ed760"
     d="m 144.24399,75.432342 c -38.08397,0 -68.958591,30.873798 -68.958591,68.957768 0,38.08563 30.874621,68.95695 68.958591,68.95695 38.08809,0 68.95942,-30.87132 68.95942,-68.95695 0,-38.0815 -30.87133,-68.954474 -68.96024,-68.954474 z m 31.62397,99.456898 c -1.23519,2.0257 -3.88671,2.668 -5.91241,1.42458 -16.19077,-9.8897 -36.57293,-12.12949 -60.57664,-6.64528 -2.31309,0.52701 -4.61876,-0.92227 -5.14577,-3.23618 -0.52948,-2.31391 0.91403,-4.61958 3.23288,-5.1466 26.26822,-6.00381 48.80041,-3.41734 66.97736,7.69107 2.0257,1.24342 2.668,3.88671 1.42458,5.91241 z m 8.44041,-18.77889 c -1.55633,2.53212 -4.86662,3.33087 -7.39462,1.77454 -18.53598,-11.39579 -46.79119,-14.69538 -68.71568,-8.04021 -2.84339,0.85886 -5.84653,-0.74358 -6.70951,-3.58203 -0.85639,-2.84339 0.74687,-5.84077 3.58532,-6.7054 25.04374,-7.59884 56.17775,-3.918 77.46406,9.16259 2.52801,1.55633 3.32676,4.86662 1.77043,7.39133 z m 0.72464,-19.55212 c -22.22505,-13.20081 -58.8935,-14.41458 -80.11311,-7.97434 -3.40746,1.03344 -7.010898,-0.89015 -8.043511,-4.29761 -1.032612,-3.4091 0.889332,-7.01007 4.299261,-8.04598 24.35862,-7.39462 64.85202,-5.96593 90.44006,9.22435 3.07149,1.81901 4.0761,5.77735 2.25627,8.83814 -1.8116,3.0649 -5.78066,4.07528 -8.83567,2.25544 z"
     id="path1"
     style="stroke-width:0.823455" /><path
     d="m 337.21112,351.22293 c 5.14229,5.26397 13.95751,5.26397 18.85378,0 5.13965,-5.3862 5.01952,-13.71099 0,-18.8522 L 239.76604,215.58246 c -5.14174,-5.14174 -14.07869,-5.14174 -18.85273,0 -5.14174,5.38619 -5.01899,13.83319 0,18.97494 z M 266.08588,267.1211 230.09471,231.12939 c -2.20367,-2.20315 -2.69309,-4.52906 -0.73437,-6.73274 2.20367,-1.95871 4.52957,-1.4693 6.85548,0.85712 l 35.86895,35.99068 z"
     style="fill:#1ed760;fill-opacity:1;stroke-width:5.22325"
     id="path1-9" /><path
     d="m 149.5547,245.87758 c 0,-2.97533 -2.47944,-5.45477 -5.3926,-5.45477 -2.91345,0 -5.39288,2.47944 -5.39288,5.45477 v 19.09179 c 0,2.91317 2.47943,5.39288 5.39288,5.39288 2.91316,0 5.3926,-2.47971 5.3926,-5.39288 z"
     style="fill:#ff0000;fill-opacity:1;stroke-width:2.64474"
     id="path1-6" /><path
     id="path2"
     style="fill:#ff0000;fill-opacity:1;stroke-width:2.64474"
     d="m 144.16197,240.42198 c -2.91345,0 -5.39258,2.47975 -5.39258,5.45508 v 18.41602 0.67578 18.41601 c 0,2.91317 2.47913,5.39453 5.39258,5.39453 2.91316,0 5.39258,-2.48136 5.39258,-5.39453 v -18.41601 -0.67578 -18.41602 c 0,-2.97533 -2.47942,-5.45508 -5.39258,-5.45508 z" /><path
     id="path3"
     style="fill:#1ed760;fill-opacity:1;stroke-width:2.64474"
     d="m 144.16197,240.42198 c -2.91345,0 -5.39258,2.47975 -5.39258,5.45508 v 18.41602 0.67578 18.41601 c 0,2.91317 2.47913,5.39453 5.39258,5.39453 2.91316,0 5.39258,-2.48136 5.39258,-5.39453 v -18.41601 -0.67578 -18.41602 c 0,-2.97533 -2.47942,-5.45508 -5.39258,-5.45508 z" /><path
     id="path3-1"
     style="fill:#1ed760;fill-opacity:1;stroke-width:2.64474"
     d="m 76.389227,212.06068 c -2.060118,-2.06012 -5.566577,-2.05968 -7.670453,0.0442 l -13.022092,13.02209 -0.477849,0.47785 -13.022085,13.02208 c -2.059923,2.05992 -2.061499,5.56752 -0.0014,7.62764 2.059914,2.05991 5.567716,2.05854 7.627638,-0.001 l 13.022086,-13.02209 0.477848,-0.47784 13.022093,-13.0221 c 2.103876,-2.10387 2.104109,-5.61054 0.0442,-7.67045 z" /><path
     id="path3-1-4"
     style="fill:#1ed760;fill-opacity:1;stroke-width:2.64474"
     d="m 246.30055,43.271845 c -2.06012,-2.06012 -5.56658,-2.05968 -7.67046,0.0442 l -13.02209,13.02209 -0.47785,0.477851 -13.02208,13.022079 c -2.05993,2.05992 -2.0615,5.56752 -0.001,7.62764 2.05991,2.05991 5.56771,2.05854 7.62764,-0.001 l 13.02208,-13.022089 0.47785,-0.47784 13.02209,-13.022101 c 2.10388,-2.10387 2.10411,-5.61054 0.0442,-7.67045 z" /><path
     id="path3-6"
     style="fill:#1ed760;fill-opacity:1;stroke-width:2.64474"
     d="m 48.35742,144.28889 c 0,-2.91345 -2.47975,-5.39258 -5.45508,-5.39258 H 24.48632 23.81054 5.39453 C 2.48136,138.89631 0,141.37544 0,144.28889 c 0,2.91316 2.48136,5.39258 5.39453,5.39258 h 18.41601 0.67578 18.41602 c 2.97533,0 5.45508,-2.47942 5.45508,-5.39258 z" /><path
     id="path3-6-2"
     style="fill:#1ed760;fill-opacity:1;stroke-width:2.64474"
     d="m 288.48881,144.28889 c 0,-2.91345 -2.47975,-5.39258 -5.45508,-5.39258 h -18.41602 -0.67578 -18.41601 c -2.91317,0 -5.39453,2.47913 -5.39453,5.39258 0,2.91316 2.48136,5.39258 5.39453,5.39258 h 18.41601 0.67578 18.41602 c 2.97533,0 5.45508,-2.47942 5.45508,-5.39258 z" /><path
     id="path3-14"
     style="fill:#1ed760;fill-opacity:1;stroke-width:2.64474"
     d="m 42.19535,42.652797 c -2.060118,2.060118 -2.05968,5.566576 0.0442,7.670452 l 13.022093,13.022093 0.477848,0.477848 13.022086,13.022086 c 2.059922,2.059922 5.567519,2.061498 7.627637,0.0014 2.059914,-2.059914 2.058543,-5.567716 -0.0014,-7.627638 L 63.365745,56.196933 62.887896,55.719084 49.865804,42.696991 c -2.103876,-2.103876 -5.61054,-2.104108 -7.670454,-0.04419 z" /><path
     id="path3-8"
     style="fill:#1ed760;fill-opacity:1;stroke-width:2.64474"
     d="m 144.24791,0 c -2.91345,0 -5.39258,2.47975 -5.39258,5.45508 v 18.41602 0.67578 18.41601 c 0,2.91317 2.47913,5.39453 5.39258,5.39453 2.91316,0 5.39258,-2.48136 5.39258,-5.39453 V 24.54688 23.8711 5.45508 C 149.64049,2.47975 147.16107,0 144.24791,0 Z" /></svg>
