<svg xmlns="http://www.w3.org/2000/svg" viewBox="0 0 64 64" width="64" height="64">
  <!-- Cassette Body -->
  <rect x="6" y="16" width="52" height="32" rx="4" ry="4" fill="#333"/>
  <rect x="8" y="18" width="48" height="28" rx="3" ry="3" fill="#cdcdcd"/>
  <rect x="10" y="20" width="44" height="20" rx="2" ry="2" fill="#fff"/>

  <!-- Tape Holes -->
  <circle cx="20" cy="30" r="5" fill="#333"/>
  <circle cx="44" cy="30" r="5" fill="#333"/>
  <circle cx="20" cy="30" r="3" fill="#f3f4f5"/>
  <circle cx="44" cy="30" r="3" fill="#f3f4f5"/>

  <!-- Tape Strips -->
  <rect x="22" y="26" width="20" height="1" fill="#333"/>
  <rect x="22" y="33" width="20" height="1" fill="#333"/>

  <!-- Top Stripes -->
  <rect x="10" y="22" width="44" height="2" fill="#333"/>
  <!--<rect x="10" y="26" width="44" height="2" fill="#333"/>-->

  <!-- Bottom Stripes -->
  <rect x="10" y="36" width="44" height="2" fill="#333"/>
  <!--<rect x="10" y="40" width="44" height="2" fill="#333"/> -->
  
  <!-- Label Area -->
  <rect x="18" y="42" width="28" height="8" rx="1" ry="1" fill="#474747"/>
</svg>